# xmcd
#
# Track frame offsets:
#   150
#   16850
#   37520
#   54583
#   71370
#   89240
#   104723
#   126308
#   143578
#   162410
#   181148
#   202913
#   216403
#   231990
#
# Disc length: 3292 seconds
#
# Revision: 0
# Processed by: cddbd v1.5.1PL0 Copyright (c) Steve Scherf et al.
# Submitted via: uFREEDB 1.6.0
#
DISCID=c40cda0e
DTITLE=Varios - Sounds Of My Car - Nacional Axé
DYEAR=2003
DGENRE=Books and Spoken
TTITLE0=Fissura - É o Tchan
TTITLE1=Tesouro de Pirata - Tchakabum
TTITLE2=Xibom Bom Bom - As Meninas
TTITLE3=Canibal - Ivete Sangalo
TTITLE4=A Luz de Tieta - Caetano Veloso
TTITLE5=Bate Lata - Banda Beijo
TTITLE6=Milla - Netinho
TTITLE7=Vai Sacudir, Vai Abalar - Banda Cheiro de Amor
TTITLE8=Liberar Geral - Terra Samba
TTITLE9=Swing da Cor - Banda Beijo
TTITLE10=Requebra - Bom Balanço
TTITLE11=Raimunda - Gang do Samba
TTITLE12=Te Amar é Preciso - Patchanka
TTITLE13=A Latinha - Timbalada
EXTD=
EXTT0=
EXTT1=
EXTT2=
EXTT3=
EXTT4=
EXTT5=
EXTT6=
EXTT7=
EXTT8=
EXTT9=
EXTT10=
EXTT11=
EXTT12=
EXTT13=
PLAYORDER=
